<svg xmlns="http://www.w3.org/2000/svg" viewBox="0 0 998 446" width="998" height="446">
<defs><rect id="t" width="48" height="54" rx="2" fill="#27272a"/></defs>
<rect width="998" height="446" fill="#18181b"/>
<use href="#t" x="0" y="0"/><use href="#t" x="50" y="0"/><use href="#t" x="100" y="0"/><use href="#t" x="150" y="0"/><use href="#t" x="200" y="0"/><use href="#t" x="250" y="0"/><use href="#t" x="300" y="0"/><use href="#t" x="350" y="0"/><use href="#t" x="400" y="0"/><use href="#t" x="450" y="0"/><use href="#t" x="500" y="0"/><use href="#t" x="550" y="0"/><use href="#t" x="600" y="0"/><use href="#t" x="650" y="0"/><use href="#t" x="700" y="0"/><use href="#t" x="750" y="0"/><use href="#t" x="800" y="0"/><use href="#t" x="850" y="0"/><use href="#t" x="900" y="0"/><use href="#t" x="950" y="0"/>
<use href="#t" x="0" y="56"/><use href="#t" x="50" y="56"/><use href="#t" x="100" y="56"/><use href="#t" x="150" y="56"/><use href="#t" x="200" y="56"/><use href="#t" x="250" y="56"/><use href="#t" x="300" y="56"/><use href="#t" x="350" y="56"/><use href="#t" x="400" y="56"/><use href="#t" x="450" y="56"/><use href="#t" x="500" y="56"/><use href="#t" x="550" y="56"/><use href="#t" x="600" y="56"/><use href="#t" x="650" y="56"/><use href="#t" x="700" y="56"/><use href="#t" x="750" y="56"/><use href="#t" x="800" y="56"/><use href="#t" x="850" y="56"/><use href="#t" x="900" y="56"/><use href="#t" x="950" y="56"/>
<use href="#t" x="0" y="112"/><use href="#t" x="50" y="112"/><use href="#t" x="100" y="112"/><use href="#t" x="150" y="112"/><use href="#t" x="200" y="112"/><use href="#t" x="250" y="112"/><use href="#t" x="300" y="112"/><use href="#t" x="350" y="112"/><use href="#t" x="400" y="112"/><use href="#t" x="450" y="112"/><use href="#t" x="500" y="112"/><use href="#t" x="550" y="112"/><use href="#t" x="600" y="112"/><use href="#t" x="650" y="112"/><use href="#t" x="700" y="112"/><use href="#t" x="750" y="112"/><use href="#t" x="800" y="112"/><use href="#t" x="850" y="112"/><use href="#t" x="900" y="112"/><use href="#t" x="950" y="112"/>
<use href="#t" x="0" y="168"/><use href="#t" x="50" y="168"/><use href="#t" x="100" y="168"/><use href="#t" x="150" y="168"/><use href="#t" x="200" y="168"/><use href="#t" x="250" y="168"/><use href="#t" x="300" y="168"/><use href="#t" x="350" y="168"/><use href="#t" x="400" y="168"/><use href="#t" x="450" y="168"/><use href="#t" x="500" y="168"/><use href="#t" x="550" y="168"/><use href="#t" x="600" y="168"/><use href="#t" x="650" y="168"/><use href="#t" x="700" y="168"/><use href="#t" x="750" y="168"/><use href="#t" x="800" y="168"/><use href="#t" x="850" y="168"/><use href="#t" x="900" y="168"/><use href="#t" x="950" y="168"/>
<use href="#t" x="0" y="224"/><use href="#t" x="50" y="224"/><use href="#t" x="100" y="224"/><use href="#t" x="150" y="224"/><use href="#t" x="200" y="224"/><use href="#t" x="250" y="224"/><use href="#t" x="300" y="224"/><use href="#t" x="350" y="224"/><use href="#t" x="400" y="224"/><use href="#t" x="450" y="224"/><use href="#t" x="500" y="224"/><use href="#t" x="550" y="224"/><use href="#t" x="600" y="224"/><use href="#t" x="650" y="224"/><use href="#t" x="700" y="224"/><use href="#t" x="750" y="224"/><use href="#t" x="800" y="224"/><use href="#t" x="850" y="224"/><use href="#t" x="900" y="224"/><use href="#t" x="950" y="224"/>
<use href="#t" x="0" y="280"/><use href="#t" x="50" y="280"/><use href="#t" x="100" y="280"/><use href="#t" x="150" y="280"/><use href="#t" x="200" y="280"/><use href="#t" x="250" y="280"/><use href="#t" x="300" y="280"/><use href="#t" x="350" y="280"/><use href="#t" x="400" y="280"/><use href="#t" x="450" y="280"/><use href="#t" x="500" y="280"/><use href="#t" x="550" y="280"/><use href="#t" x="600" y="280"/><use href="#t" x="650" y="280"/><use href="#t" x="700" y="280"/><use href="#t" x="750" y="280"/><use href="#t" x="800" y="280"/><use href="#t" x="850" y="280"/><use href="#t" x="900" y="280"/><use href="#t" x="950" y="280"/>
<use href="#t" x="0" y="336"/><use href="#t" x="50" y="336"/><use href="#t" x="100" y="336"/><use href="#t" x="150" y="336"/><use href="#t" x="200" y="336"/><use href="#t" x="250" y="336"/><use href="#t" x="300" y="336"/><use href="#t" x="350" y="336"/><use href="#t" x="400" y="336"/><use href="#t" x="450" y="336"/><use href="#t" x="500" y="336"/><use href="#t" x="550" y="336"/><use href="#t" x="600" y="336"/><use href="#t" x="650" y="336"/><use href="#t" x="700" y="336"/><use href="#t" x="750" y="336"/><use href="#t" x="800" y="336"/><use href="#t" x="850" y="336"/><use href="#t" x="900" y="336"/><use href="#t" x="950" y="336"/>
<use href="#t" x="0" y="392"/><use href="#t" x="50" y="392"/><use href="#t" x="100" y="392"/><use href="#t" x="150" y="392"/><use href="#t" x="200" y="392"/><use href="#t" x="250" y="392"/><use href="#t" x="300" y="392"/><use href="#t" x="350" y="392"/><use href="#t" x="400" y="392"/><use href="#t" x="450" y="392"/><use href="#t" x="500" y="392"/><use href="#t" x="550" y="392"/><use href="#t" x="600" y="392"/><use href="#t" x="650" y="392"/><use href="#t" x="700" y="392"/><use href="#t" x="750" y="392"/><use href="#t" x="800" y="392"/><use href="#t" x="850" y="392"/><use href="#t" x="900" y="392"/><use href="#t" x="950" y="392"/>
<text x="274" y="149" text-anchor="middle" fill="#fafafa" font-family="'Courier New',monospace" font-size="34" font-weight="bold" opacity="0">M<animate attributeName="opacity" from="0" to="1" begin="0.580s" dur="0.15s" fill="freeze"/></text>
<text x="324" y="149" text-anchor="middle" fill="#fafafa" font-family="'Courier New',monospace" font-size="34" font-weight="bold" opacity="0">A<animate attributeName="opacity" from="0" to="1" begin="0.540s" dur="0.15s" fill="freeze"/></text>
<text x="374" y="149" text-anchor="middle" fill="#fafafa" font-family="'Courier New',monospace" font-size="34" font-weight="bold" opacity="0">R<animate attributeName="opacity" from="0" to="1" begin="0.500s" dur="0.15s" fill="freeze"/></text>
<text x="424" y="149" text-anchor="middle" fill="#fafafa" font-family="'Courier New',monospace" font-size="34" font-weight="bold" opacity="0">I<animate attributeName="opacity" from="0" to="1" begin="0.460s" dur="0.15s" fill="freeze"/></text>
<text x="474" y="149" text-anchor="middle" fill="#fafafa" font-family="'Courier New',monospace" font-size="34" font-weight="bold" opacity="0">O<animate attributeName="opacity" from="0" to="1" begin="0.420s" dur="0.15s" fill="freeze"/></text>
<text x="274" y="205" text-anchor="middle" fill="#fafafa" font-family="'Courier New',monospace" font-size="34" font-weight="bold" opacity="0">S<animate attributeName="opacity" from="0" to="1" begin="0.540s" dur="0.15s" fill="freeze"/></text>
<text x="324" y="205" text-anchor="middle" fill="#fafafa" font-family="'Courier New',monospace" font-size="34" font-weight="bold" opacity="0">U<animate attributeName="opacity" from="0" to="1" begin="0.500s" dur="0.15s" fill="freeze"/></text>
<text x="374" y="205" text-anchor="middle" fill="#fafafa" font-family="'Courier New',monospace" font-size="34" font-weight="bold" opacity="0">M<animate attributeName="opacity" from="0" to="1" begin="0.460s" dur="0.15s" fill="freeze"/></text>
<text x="424" y="205" text-anchor="middle" fill="#fafafa" font-family="'Courier New',monospace" font-size="34" font-weight="bold" opacity="0">A<animate attributeName="opacity" from="0" to="1" begin="0.420s" dur="0.15s" fill="freeze"/></text>
<text x="474" y="205" text-anchor="middle" fill="#fafafa" font-family="'Courier New',monospace" font-size="34" font-weight="bold" opacity="0">L<animate attributeName="opacity" from="0" to="1" begin="0.380s" dur="0.15s" fill="freeze"/></text>
<text x="524" y="205" text-anchor="middle" fill="#fafafa" font-family="'Courier New',monospace" font-size="34" font-weight="bold" opacity="0">I<animate attributeName="opacity" from="0" to="1" begin="0.340s" dur="0.15s" fill="freeze"/></text>
<text x="324" y="317" text-anchor="middle" fill="#a1a1aa" font-family="'Courier New',monospace" font-size="28" opacity="0">S<animate attributeName="opacity" from="0" to="1" begin="0.500s" dur="0.15s" fill="freeze"/></text>
<text x="374" y="317" text-anchor="middle" fill="#a1a1aa" font-family="'Courier New',monospace" font-size="28" opacity="0">T<animate attributeName="opacity" from="0" to="1" begin="0.460s" dur="0.15s" fill="freeze"/></text>
<text x="424" y="317" text-anchor="middle" fill="#a1a1aa" font-family="'Courier New',monospace" font-size="28" opacity="0">A<animate attributeName="opacity" from="0" to="1" begin="0.420s" dur="0.15s" fill="freeze"/></text>
<text x="474" y="317" text-anchor="middle" fill="#a1a1aa" font-family="'Courier New',monospace" font-size="28" opacity="0">N<animate attributeName="opacity" from="0" to="1" begin="0.380s" dur="0.15s" fill="freeze"/></text>
<text x="524" y="317" text-anchor="middle" fill="#a1a1aa" font-family="'Courier New',monospace" font-size="28" opacity="0">F<animate attributeName="opacity" from="0" to="1" begin="0.340s" dur="0.15s" fill="freeze"/></text>
<text x="574" y="317" text-anchor="middle" fill="#a1a1aa" font-family="'Courier New',monospace" font-size="28" opacity="0">O<animate attributeName="opacity" from="0" to="1" begin="0.380s" dur="0.15s" fill="freeze"/></text>
<text x="624" y="317" text-anchor="middle" fill="#a1a1aa" font-family="'Courier New',monospace" font-size="28" opacity="0">R<animate attributeName="opacity" from="0" to="1" begin="0.420s" dur="0.15s" fill="freeze"/></text>
<text x="674" y="317" text-anchor="middle" fill="#a1a1aa" font-family="'Courier New',monospace" font-size="28" opacity="0">D<animate attributeName="opacity" from="0" to="1" begin="0.460s" dur="0.15s" fill="freeze"/></text>
<g transform="translate(262,295)" opacity="0"><path d="M12 2C8.13 2 5 5.13 5 9c0 5.25 7 13 7 13s7-7.75 7-13c0-3.87-3.13-7-7-7zm0 9.5c-1.38 0-2.5-1.12-2.5-2.5s1.12-2.5 2.5-2.5 2.5 1.12 2.5 2.5-1.12 2.5-2.5 2.5z" fill="#a1a1aa"/><animate attributeName="opacity" from="0" to="1" begin="0.540s" dur="0.15s" fill="freeze"/></g>
<g>
<animate attributeName="opacity" calcMode="discrete" values="1;0;0;0;0" keyTimes="0.00;0.20;0.40;0.60;0.80" dur="25s" repeatCount="indefinite" begin="2s"/>
<text x="274" y="93" text-anchor="middle" fill="#fafafa" font-family="'Courier New',monospace" font-size="28" opacity="0">W<animate attributeName="opacity" from="0" to="1" begin="0.620s" dur="0.15s" fill="freeze"/></text>
<text x="324" y="93" text-anchor="middle" fill="#fafafa" font-family="'Courier New',monospace" font-size="28" opacity="0">E<animate attributeName="opacity" from="0" to="1" begin="0.580s" dur="0.15s" fill="freeze"/></text>
<text x="374" y="93" text-anchor="middle" fill="#fafafa" font-family="'Courier New',monospace" font-size="28" opacity="0">L<animate attributeName="opacity" from="0" to="1" begin="0.540s" dur="0.15s" fill="freeze"/></text>
<text x="424" y="93" text-anchor="middle" fill="#fafafa" font-family="'Courier New',monospace" font-size="28" opacity="0">C<animate attributeName="opacity" from="0" to="1" begin="0.500s" dur="0.15s" fill="freeze"/></text>
<text x="474" y="93" text-anchor="middle" fill="#fafafa" font-family="'Courier New',monospace" font-size="28" opacity="0">O<animate attributeName="opacity" from="0" to="1" begin="0.460s" dur="0.15s" fill="freeze"/></text>
<text x="524" y="93" text-anchor="middle" fill="#fafafa" font-family="'Courier New',monospace" font-size="28" opacity="0">M<animate attributeName="opacity" from="0" to="1" begin="0.420s" dur="0.15s" fill="freeze"/></text>
<text x="574" y="93" text-anchor="middle" fill="#fafafa" font-family="'Courier New',monospace" font-size="28" opacity="0">E<animate attributeName="opacity" from="0" to="1" begin="0.460s" dur="0.15s" fill="freeze"/></text>
</g>
<g opacity="0">
<animate attributeName="opacity" calcMode="discrete" values="0;1;0;0;0" keyTimes="0.00;0.20;0.40;0.60;0.80" dur="25s" repeatCount="indefinite" begin="2s"/>
<text x="274" y="93" text-anchor="middle" fill="#fafafa" font-family="'Courier New',monospace" font-size="28">B</text>
<text x="324" y="93" text-anchor="middle" fill="#fafafa" font-family="'Courier New',monospace" font-size="28">I</text>
<text x="374" y="93" text-anchor="middle" fill="#fafafa" font-family="'Courier New',monospace" font-size="28">E</text>
<text x="424" y="93" text-anchor="middle" fill="#fafafa" font-family="'Courier New',monospace" font-size="28">N</text>
<text x="474" y="93" text-anchor="middle" fill="#fafafa" font-family="'Courier New',monospace" font-size="28">V</text>
<text x="524" y="93" text-anchor="middle" fill="#fafafa" font-family="'Courier New',monospace" font-size="28">E</text>
<text x="574" y="93" text-anchor="middle" fill="#fafafa" font-family="'Courier New',monospace" font-size="28">N</text>
<text x="624" y="93" text-anchor="middle" fill="#fafafa" font-family="'Courier New',monospace" font-size="28">U</text>
<text x="674" y="93" text-anchor="middle" fill="#fafafa" font-family="'Courier New',monospace" font-size="28">E</text>
</g>
<g opacity="0">
<animate attributeName="opacity" calcMode="discrete" values="0;0;1;0;0" keyTimes="0.00;0.20;0.40;0.60;0.80" dur="25s" repeatCount="indefinite" begin="2s"/>
<text x="274" y="93" text-anchor="middle" fill="#fafafa" font-family="'Courier New',monospace" font-size="28">W</text>
<text x="324" y="93" text-anchor="middle" fill="#fafafa" font-family="'Courier New',monospace" font-size="28">I</text>
<text x="374" y="93" text-anchor="middle" fill="#fafafa" font-family="'Courier New',monospace" font-size="28">L</text>
<text x="424" y="93" text-anchor="middle" fill="#fafafa" font-family="'Courier New',monospace" font-size="28">L</text>
<text x="474" y="93" text-anchor="middle" fill="#fafafa" font-family="'Courier New',monospace" font-size="28">K</text>
<text x="524" y="93" text-anchor="middle" fill="#fafafa" font-family="'Courier New',monospace" font-size="28">O</text>
<text x="574" y="93" text-anchor="middle" fill="#fafafa" font-family="'Courier New',monospace" font-size="28">M</text>
<text x="624" y="93" text-anchor="middle" fill="#fafafa" font-family="'Courier New',monospace" font-size="28">M</text>
<text x="674" y="93" text-anchor="middle" fill="#fafafa" font-family="'Courier New',monospace" font-size="28">E</text>
<text x="724" y="93" text-anchor="middle" fill="#fafafa" font-family="'Courier New',monospace" font-size="28">N</text>
</g>
<g opacity="0">
<animate attributeName="opacity" calcMode="discrete" values="0;0;0;1;0" keyTimes="0.00;0.20;0.40;0.60;0.80" dur="25s" repeatCount="indefinite" begin="2s"/>
<text x="274" y="93" text-anchor="middle" fill="#fafafa" font-family="'Courier New',monospace" font-size="28">B</text>
<text x="324" y="93" text-anchor="middle" fill="#fafafa" font-family="'Courier New',monospace" font-size="28">I</text>
<text x="374" y="93" text-anchor="middle" fill="#fafafa" font-family="'Courier New',monospace" font-size="28">E</text>
<text x="424" y="93" text-anchor="middle" fill="#fafafa" font-family="'Courier New',monospace" font-size="28">N</text>
<text x="474" y="93" text-anchor="middle" fill="#fafafa" font-family="'Courier New',monospace" font-size="28">V</text>
<text x="524" y="93" text-anchor="middle" fill="#fafafa" font-family="'Courier New',monospace" font-size="28">E</text>
<text x="574" y="93" text-anchor="middle" fill="#fafafa" font-family="'Courier New',monospace" font-size="28">N</text>
<text x="624" y="93" text-anchor="middle" fill="#fafafa" font-family="'Courier New',monospace" font-size="28">I</text>
<text x="674" y="93" text-anchor="middle" fill="#fafafa" font-family="'Courier New',monospace" font-size="28">D</text>
<text x="724" y="93" text-anchor="middle" fill="#fafafa" font-family="'Courier New',monospace" font-size="28">O</text>
</g>
<g opacity="0">
<animate attributeName="opacity" calcMode="discrete" values="0;0;0;0;1" keyTimes="0.00;0.20;0.40;0.60;0.80" dur="25s" repeatCount="indefinite" begin="2s"/>
<text x="274" y="93" text-anchor="middle" fill="#fafafa" font-family="'Courier New',monospace" font-size="28">B</text>
<text x="324" y="93" text-anchor="middle" fill="#fafafa" font-family="'Courier New',monospace" font-size="28">E</text>
<text x="374" y="93" text-anchor="middle" fill="#fafafa" font-family="'Courier New',monospace" font-size="28">N</text>
<text x="424" y="93" text-anchor="middle" fill="#fafafa" font-family="'Courier New',monospace" font-size="28">V</text>
<text x="474" y="93" text-anchor="middle" fill="#fafafa" font-family="'Courier New',monospace" font-size="28">E</text>
<text x="524" y="93" text-anchor="middle" fill="#fafafa" font-family="'Courier New',monospace" font-size="28">N</text>
<text x="574" y="93" text-anchor="middle" fill="#fafafa" font-family="'Courier New',monospace" font-size="28">U</text>
<text x="624" y="93" text-anchor="middle" fill="#fafafa" font-family="'Courier New',monospace" font-size="28">T</text>
<text x="674" y="93" text-anchor="middle" fill="#fafafa" font-family="'Courier New',monospace" font-size="28">O</text>
</g>
<g stroke="#1e1e22" stroke-width="1" opacity="0.4">
<line x1="0" y1="27" x2="998" y2="27"/>
<line x1="0" y1="83" x2="998" y2="83"/>
<line x1="0" y1="139" x2="998" y2="139"/>
<line x1="0" y1="195" x2="998" y2="195"/>
<line x1="0" y1="251" x2="998" y2="251"/>
<line x1="0" y1="307" x2="998" y2="307"/>
<line x1="0" y1="363" x2="998" y2="363"/>
<line x1="0" y1="419" x2="998" y2="419"/>
</g>
</svg>
